<svg width="63" height="39" viewBox="0 0 63 39" fill="none" xmlns="http://www.w3.org/2000/svg">
<g clip-path="url(#clip0_211_852)" filter="url(#filter0_d_211_852)">
<path d="M58.9957 11.5165C59.0015 11.4748 59.0015 11.4326 58.9957 11.3909C59.0011 11.3569 59.0011 11.3223 58.9957 11.2882L58.5883 8.35558C58.5295 8.00472 58.3723 7.67679 58.1344 7.40846L58.0645 7.32858L57.9365 7.20305L50.8829 1.24648L51.0808 1.44048C50.9189 1.2506 50.7157 1.09872 50.4861 0.996024C50.2565 0.893332 50.0062 0.842439 49.7539 0.8471H47.6122C47.2639 0.840335 46.9236 0.948887 46.6461 1.1552C46.3547 0.95013 46.0038 0.842133 45.6451 0.8471H43.5034C43.2225 0.842632 42.9454 0.910975 42.7001 1.04523C42.4549 1.17948 42.2501 1.37488 42.1067 1.61164C41.8855 1.94979 41.8023 2.35721 41.8738 2.75275L42.1416 4.60133C41.9642 4.50277 41.7635 4.45162 41.5596 4.453H31.1887C30.8166 4.45529 30.4531 4.56221 30.1411 4.76109C29.8395 4.9462 29.5973 5.21127 29.4428 5.52562L28.6396 4.85238C28.3235 4.56565 27.9063 4.41023 27.4757 4.41877H11.2035C10.8301 4.42543 10.465 4.5277 10.1444 4.71545C9.70569 4.96717 9.38421 5.37645 9.24809 5.85655L4.08012 22.802C3.98355 23.0812 3.97406 23.3824 4.05284 23.6669C4.13162 23.9514 4.29511 24.2065 4.52243 24.3996C4.58166 24.4488 4.64385 24.4945 4.70866 24.5365C4.70866 24.5365 4.60389 24.468 4.54569 24.411L11.5993 30.379C11.8977 30.6483 12.2878 30.7988 12.6934 30.8011H29.0936C29.4681 30.7916 29.8335 30.6853 30.1528 30.493C30.3334 30.3963 30.495 30.2688 30.63 30.1165L30.6882 30.0366L30.7813 29.9225L30.8512 29.797L31.6194 30.4474C31.9135 30.706 32.2951 30.8483 32.6902 30.8468H49.1253C49.4994 30.8346 49.8641 30.7285 50.1845 30.5387C50.361 30.436 50.5217 30.3092 50.6618 30.1621L50.7199 30.0823L50.813 29.9682C50.8625 29.896 50.9055 29.8196 50.941 29.7399C50.9791 29.6707 51.0103 29.5981 51.0342 29.5231L55.7482 14.0497V13.9128C55.754 13.8597 55.754 13.8061 55.7482 13.753V13.6504C55.7539 13.6163 55.7539 13.5817 55.7482 13.5476C55.7535 13.4755 55.7535 13.403 55.7482 13.3308H57.2614C57.393 13.3426 57.5255 13.3426 57.6571 13.3308H57.7619C57.8471 13.3059 57.9291 13.2714 58.0063 13.2281H58.1227L58.3322 13.0684L58.4253 12.9999L58.5883 12.7945V12.7261L58.7047 12.532C58.6982 12.4943 58.6982 12.4557 58.7047 12.418C58.6985 12.3994 58.6985 12.3794 58.7047 12.3609C58.7294 12.294 58.7489 12.2253 58.7629 12.1555C58.7575 12.133 58.7575 12.1095 58.7629 12.087C58.7572 12.053 58.7572 12.0183 58.7629 11.9843C58.7629 11.9843 58.9957 11.5393 58.9957 11.5165Z" fill="black"/>
<path d="M27.9529 5.71971C28.0147 5.77449 28.0579 5.84652 28.0766 5.92609C28.0954 6.00567 28.0887 6.08896 28.0577 6.16474L22.9014 23.0988C22.8365 23.2836 22.7036 23.4382 22.5289 23.5324C22.3868 23.6256 22.2222 23.6807 22.0517 23.6922H5.66316C5.5232 23.6856 5.39061 23.6287 5.29069 23.5324C5.23125 23.4785 5.18954 23.4084 5.17088 23.3313C5.15221 23.254 5.15747 23.1731 5.18594 23.0988L10.3539 6.16474C10.4135 5.97752 10.5421 5.81882 10.7147 5.71971C10.8592 5.63317 11.023 5.58227 11.192 5.57136H27.5805C27.7193 5.57267 27.8525 5.62571 27.9529 5.71971ZM19.3978 19.6869L22.4823 9.57664H13.8458L10.7729 19.6869H19.3978ZM43.5965 5.89087C43.6525 5.95457 43.7223 6.00509 43.801 6.03868C43.8796 6.07226 43.9648 6.08805 44.0505 6.08485H46.1805C46.2617 6.08563 46.3416 6.06613 46.4129 6.0282C46.4842 5.99026 46.5444 5.93514 46.5879 5.86804C46.6257 5.81563 46.6525 5.7563 46.6665 5.69357C46.6804 5.63085 46.6814 5.56601 46.6694 5.5029L46.2504 2.49037C46.2105 2.35095 46.1388 2.2222 46.0409 2.11381C45.9849 2.0501 45.9151 1.99958 45.8365 1.966C45.7579 1.93241 45.6726 1.91663 45.5869 1.91982H43.4569C43.3758 1.91905 43.2958 1.93855 43.2245 1.97648C43.1532 2.01442 43.093 2.06953 43.0495 2.13664C42.968 2.29639 42.9331 2.39908 42.968 2.49037L43.3987 5.5029C43.4208 5.64958 43.4901 5.78551 43.5965 5.89087ZM50.3592 2.46755C50.3192 2.32812 50.2476 2.19937 50.1496 2.09098C50.0961 2.02751 50.0283 1.97701 49.9516 1.94336C49.8749 1.90972 49.7913 1.89385 49.7073 1.897H47.5656C47.4859 1.89477 47.407 1.91374 47.3373 1.95191C47.2676 1.99008 47.2098 2.04603 47.1699 2.11381C47.0925 2.21504 47.0589 2.3422 47.0768 2.46755L47.5074 5.48007C47.5345 5.62521 47.6031 5.75979 47.7053 5.86804C47.7622 5.9305 47.8323 5.98018 47.9107 6.01366C47.989 6.04714 48.0738 6.06364 48.1592 6.06202H50.301C50.3806 6.06306 50.4589 6.04358 50.5284 6.00553C50.5979 5.96747 50.6559 5.9122 50.6967 5.84523C50.7372 5.79418 50.7655 5.73487 50.7796 5.67169C50.7937 5.60851 50.7932 5.54304 50.7782 5.48007L50.3592 2.46755ZM41.7226 7.03198L41.513 5.54854H31.1888C31.0267 5.5573 30.8698 5.60853 30.7348 5.69688C30.6491 5.74271 30.5744 5.80624 30.5162 5.88307C30.458 5.9599 30.4174 6.04821 30.3973 6.14191L29.5359 8.97184C29.5016 9.04256 29.4898 9.12191 29.5023 9.19931C29.5148 9.27671 29.5508 9.34856 29.6058 9.40549C29.7039 9.49594 29.832 9.54866 29.9666 9.55384H42.5141L39.4296 19.6641H26.917C26.7557 19.6677 26.5986 19.7151 26.4631 19.8009C26.2985 19.9035 26.1783 20.0619 26.1256 20.246L25.2526 23.076C25.2241 23.1486 25.2166 23.2275 25.231 23.304C25.2454 23.3805 25.281 23.4516 25.334 23.5095C25.4291 23.6061 25.5582 23.6632 25.6949 23.6693H42.1299C42.2999 23.655 42.4638 23.6001 42.6071 23.5095C42.779 23.4149 42.908 23.26 42.968 23.076L47.6936 7.60253H42.3744C42.29 7.60416 42.2062 7.5888 42.1281 7.5574C42.05 7.52599 41.9794 7.4792 41.9205 7.41994C41.8242 7.31647 41.7562 7.19089 41.7226 7.0548V7.03198Z" fill="white"/>
</g>
<defs>
<filter id="filter0_d_211_852" x="0" y="0.846802" width="63" height="38" filterUnits="userSpaceOnUse" color-interpolation-filters="sRGB">
<feFlood flood-opacity="0" result="BackgroundImageFix"/>
<feColorMatrix in="SourceAlpha" type="matrix" values="0 0 0 0 0 0 0 0 0 0 0 0 0 0 0 0 0 0 127 0" result="hardAlpha"/>
<feOffset dy="4"/>
<feGaussianBlur stdDeviation="2"/>
<feComposite in2="hardAlpha" operator="out"/>
<feColorMatrix type="matrix" values="0 0 0 0 0 0 0 0 0 0 0 0 0 0 0 0 0 0 0.25 0"/>
<feBlend mode="normal" in2="BackgroundImageFix" result="effect1_dropShadow_211_852"/>
<feBlend mode="normal" in="SourceGraphic" in2="effect1_dropShadow_211_852" result="shape"/>
</filter>
<clipPath id="clip0_211_852">
<rect width="55" height="30" fill="white" transform="translate(4 0.846802)"/>
</clipPath>
</defs>
</svg>
